<?xml version="1.0" standalone="no"?>
<!DOCTYPE svg PUBLIC "-//W3C//DTD SVG 20010904//EN"
 "http://www.w3.org/TR/2001/REC-SVG-20010904/DTD/svg10.dtd">
<svg version="1.0" xmlns="http://www.w3.org/2000/svg"
 width="1024.000000pt" height="1024.000000pt" viewBox="0 0 1024.000000 1024.000000"
 preserveAspectRatio="xMidYMid meet">

<g transform="translate(0.000000,1024.000000) scale(0.100000,-0.100000)"
fill="#000000" stroke="none">
<path d="M6405 9840 c-44 -10 -104 -27 -133 -38 -183 -70 -355 -233 -412 -391
-28 -77 -30 -80 -80 -108 -25 -14 -56 -35 -70 -48 -25 -23 -27 -23 -165 -15
-85 5 -162 15 -195 26 -46 15 -93 18 -295 18 -207 1 -257 -3 -365 -22 -352
-64 -696 -205 -960 -392 -109 -78 -294 -242 -360 -320 -25 -30 -66 -85 -91
-123 -26 -38 -96 -119 -157 -180 -190 -193 -318 -369 -425 -582 -50 -101 -138
-330 -136 -359 0 -6 20 45 44 114 182 516 580 966 1074 1215 254 127 628 231
964 266 143 16 502 16 632 0 464 -54 834 -179 1186 -402 63 -39 143 -96 179
-126 172 -144 379 -371 483 -528 61 -94 177 -320 214 -420 86 -227 133 -501
133 -768 l0 -179 29 -27 c77 -72 107 -442 52 -646 -38 -144 -108 -270 -205
-374 -60 -63 -111 -91 -166 -91 l-40 0 0 43 c0 23 9 103 19 177 30 212 57 444
106 918 8 79 17 147 20 153 4 5 18 9 32 9 l26 0 -7 66 c-9 86 -52 303 -75 379
-59 191 -131 342 -247 515 -510 766 -1522 1161 -2533 989 -600 -102 -1024
-332 -1388 -754 -161 -186 -258 -342 -335 -536 -86 -215 -128 -405 -128 -577
l0 -94 32 4 c31 3 32 2 43 -52 7 -30 18 -104 25 -165 28 -259 87 -620 157
-968 19 -99 16 -107 -42 -107 -111 1 -271 172 -356 380 -58 144 -81 345 -59
516 15 115 31 165 66 211 17 23 23 40 19 54 -4 12 -11 63 -15 113 l-7 91 -2
-111 c-1 -94 -5 -120 -25 -167 -50 -113 -74 -298 -57 -447 25 -220 100 -402
221 -533 88 -94 145 -127 225 -127 52 0 58 -3 95 -41 l40 -42 64 7 65 6 10
-37 c5 -21 17 -76 26 -123 66 -332 161 -539 309 -678 84 -78 208 -142 277
-142 60 0 71 15 30 47 -61 48 -143 169 -186 275 -60 147 -141 528 -113 528 5
0 48 -30 96 -67 173 -132 453 -235 817 -298 83 -15 154 -31 159 -36 6 -6 3 -9
-10 -9 -14 0 -15 -3 -6 -9 9 -5 -16 -19 -73 -41 -97 -38 -131 -69 -141 -131
-6 -33 -12 -42 -39 -53 -77 -33 -135 -110 -135 -183 0 -33 -5 -41 -38 -62 -20
-13 -76 -65 -125 -115 l-87 -91 -158 -6 c-86 -3 -159 -3 -162 0 -12 15 -134
112 -159 127 -22 13 -31 29 -41 71 -13 60 -60 122 -112 149 -39 20 -94 23
-144 8 -40 -12 -41 -12 -105 38 -98 76 -116 96 -134 151 -21 64 -39 87 -117
150 -35 28 -79 75 -100 108 -56 89 -100 100 -139 36 -24 -41 -24 -83 1 -149
11 -29 16 -55 12 -59 -12 -11 -135 -29 -204 -29 -81 0 -157 -22 -188 -55 -21
-22 -22 -27 -10 -50 7 -13 21 -27 32 -31 26 -8 23 -16 -27 -57 -83 -70 -53
-117 75 -118 l75 0 30 -62 c28 -58 34 -64 90 -87 52 -22 76 -25 185 -26 69 -1
130 -2 136 -3 15 -1 46 -30 72 -67 18 -27 20 -34 8 -43 -8 -6 -23 -34 -35 -61
-17 -40 -20 -61 -15 -103 8 -64 22 -92 68 -136 19 -19 38 -48 42 -65 19 -92
137 -241 264 -334 117 -85 266 -153 402 -182 l56 -13 11 -61 c6 -34 19 -140
31 -236 11 -96 23 -198 26 -227 l7 -52 -44 -11 c-76 -19 -83 -22 -149 -55
-107 -54 -213 -175 -245 -280 -23 -77 -20 -250 5 -319 35 -92 92 -170 175
-235 l76 -60 -28 -14 c-18 -9 -69 -14 -148 -15 -139 -2 -632 -29 -687 -38 -21
-3 -51 -3 -68 1 -26 6 -30 11 -30 40 0 18 6 38 14 44 8 7 15 43 19 99 9 137
46 597 57 702 26 268 52 702 41 713 -14 14 -13 84 3 265 8 95 17 146 25 151 9
6 2 10 -20 14 -41 6 -1853 6 -1926 0 -48 -5 -51 -6 -43 -26 5 -12 16 -85 24
-162 9 -77 19 -156 22 -176 5 -27 2 -40 -12 -53 -19 -20 -18 -60 16 -471 5
-66 14 -178 20 -250 5 -71 18 -238 29 -370 11 -132 23 -280 27 -330 3 -49 10
-95 15 -101 5 -6 11 -42 15 -81 6 -66 5 -71 -17 -87 -13 -9 -35 -16 -49 -16
-35 -1 -113 -37 -108 -52 5 -15 140 -64 211 -77 28 -5 72 -14 97 -20 139 -30
525 -81 778 -101 65 -5 155 -14 202 -19 47 -6 148 -15 225 -21 77 -6 223 -17
325 -25 693 -54 1093 -65 2480 -66 1213 -1 1711 8 2285 41 94 6 260 15 370 20
438 22 1076 68 1320 95 72 7 202 21 290 30 88 9 174 21 190 26 17 5 76 15 132
24 131 19 272 60 298 86 l20 20 -27 24 -28 24 0 178 c0 193 -9 233 -61 279
-32 29 -99 64 -122 64 -15 0 -12 8 17 42 51 59 58 97 54 282 -3 147 -5 164
-26 198 -13 20 -40 47 -60 60 -35 22 -50 23 -257 28 -222 5 -265 12 -227 34
65 37 238 165 300 221 55 51 72 73 72 94 0 54 -36 62 -145 35 -33 -8 -115 -21
-181 -28 -67 -8 -157 -26 -200 -39 -82 -26 -389 -97 -417 -97 -10 0 -17 8 -17
19 0 10 -2 126 -5 257 -7 303 -13 330 -90 379 -52 33 -67 56 -45 70 6 3 10 50
10 107 0 99 0 100 -32 129 l-31 30 -263 -3 c-319 -4 -299 5 -309 -139 -7 -94
-7 -96 19 -124 21 -23 24 -31 14 -43 -11 -13 -10 -14 10 -3 12 6 22 17 22 24
0 9 62 12 255 12 232 0 256 -2 261 -17 3 -10 28 -30 57 -45 90 -49 91 -55 95
-368 2 -148 1 -289 -3 -311 -8 -55 -50 -117 -95 -143 -36 -20 -52 -21 -314
-21 -307 0 -324 3 -370 63 -14 19 -35 59 -45 88 -11 30 -20 47 -20 39 -2 -34
30 -133 54 -168 23 -34 24 -37 8 -44 -10 -3 -102 -7 -205 -7 -174 -1 -189 -2
-208 -21 -22 -22 -27 -69 -8 -88 7 -7 24 -12 38 -12 14 0 31 -5 38 -12 9 -9
12 -9 12 0 0 9 243 12 1063 12 584 0 1072 -3 1083 -6 41 -11 56 -68 52 -202
-4 -172 2 -167 -216 -166 l-167 2 145 -8 c80 -5 164 -7 187 -7 23 1 39 -1 35
-4 -11 -11 -413 -14 -1376 -11 -489 1 -892 0 -895 -4 -3 -3 -5 -26 -4 -50 1
-42 0 -44 -26 -44 -55 0 -87 -59 -53 -99 25 -31 78 -44 97 -24 14 14 139 15
1138 16 847 0 1132 -3 1164 -12 57 -16 72 -47 77 -158 5 -110 -8 -191 -33
-216 -17 -18 -34 -19 -197 -19 -111 1 -171 -2 -159 -8 11 -5 83 -9 160 -9 241
-1 250 6 250 219 0 163 -7 185 -68 216 -53 28 -399 41 -383 15 2 -3 -190 -5
-427 -5 -238 1 -535 2 -662 2 -126 0 -329 1 -450 0 -121 0 -277 2 -347 3 -117
3 -127 5 -132 24 -3 11 -2 23 2 27 5 5 539 9 1188 10 l1179 2 48 -23 c76 -37
81 -51 86 -234 3 -175 -6 -222 -55 -268 -24 -23 -34 -24 -156 -26 -72 -1 -138
2 -147 6 -10 6 -36 4 -66 -4 -40 -11 -250 -13 -1060 -12 l-1010 2 0 25 c0 20
5 26 30 28 l30 3 -3 64 c-3 61 -5 63 -25 56 -12 -4 -133 -6 -269 -4 -206 4
-255 8 -294 22 l-47 18 59 40 c221 150 293 408 179 640 -37 75 -70 114 -148
172 -51 37 -171 92 -235 106 -21 4 -32 13 -32 23 0 9 11 103 24 207 13 105 27
222 31 261 4 39 10 76 14 82 3 6 42 18 85 27 156 32 364 144 489 264 92 87
122 131 153 220 14 40 37 78 62 105 22 22 44 56 51 75 23 71 7 155 -38 195
-11 11 -21 24 -21 30 0 7 22 36 49 65 49 53 49 53 93 45 58 -12 204 -9 256 6
60 16 116 69 132 126 l13 45 77 -7 c71 -6 80 -4 99 15 11 11 21 26 21 33 0 6
-25 36 -55 65 -30 29 -49 53 -42 53 6 1 23 10 36 21 21 17 23 24 15 46 -16 47
-61 64 -198 73 -196 14 -213 21 -189 78 33 78 16 174 -35 193 -36 14 -73 -12
-105 -74 -18 -34 -47 -68 -77 -91 -77 -59 -118 -110 -135 -171 -15 -49 -24
-61 -93 -117 -42 -34 -83 -66 -89 -71 -8 -6 -28 -3 -55 7 -51 21 -106 14 -166
-20 -45 -27 -73 -71 -92 -146 -9 -33 -19 -49 -43 -63 -31 -17 -169 -133 -175
-147 -2 -3 -15 0 -30 8 -19 10 -65 14 -155 14 l-129 0 -66 64 c-103 98 -124
116 -169 148 -39 26 -43 33 -43 70 0 82 -63 162 -141 181 -22 6 -28 14 -33 51
-10 65 -52 98 -176 136 -64 20 -100 36 -100 45 0 20 6 23 146 49 293 56 560
148 709 245 36 24 121 85 153 112 32 26 -24 -327 -76 -481 -50 -146 -122 -268
-194 -323 -27 -21 -30 -29 -20 -39 27 -27 104 -15 188 27 155 78 268 226 343
451 28 82 80 321 96 437 l6 47 43 0 c24 0 57 3 74 6 29 6 31 4 45 -44 32 -106
84 -178 171 -234 32 -21 67 -38 77 -38 16 0 16 5 -8 56 -21 47 -25 66 -20 114
9 101 36 135 222 274 146 110 230 203 289 319 100 201 130 395 124 781 -3 162
-11 300 -23 388 l-18 138 65 67 c137 142 220 316 271 568 19 97 22 139 21 360
-1 276 -15 386 -74 591 -136 467 -372 797 -690 965 -52 27 -122 70 -155 94
-128 94 -301 165 -484 199 -117 22 -351 20 -456 -4z m374 -31 c36 -6 71 -16
76 -22 7 -7 5 -8 -7 -4 -76 27 -328 10 -444 -29 -105 -35 -203 -95 -280 -171
-42 -41 -78 -72 -81 -69 -4 3 -1 6 5 6 7 0 12 6 12 14 0 8 30 42 68 77 46 43
57 56 34 43 -82 -47 -163 -137 -215 -241 -30 -59 -61 -80 -47 -33 19 66 79
158 146 225 70 70 164 128 275 169 111 42 323 58 458 35z m-547 -490 c87 -29
165 -75 216 -126 23 -24 46 -43 51 -43 15 0 81 -145 81 -178 0 -45 -33 -76
-72 -68 -33 7 -125 60 -194 112 -82 63 -147 92 -279 124 -71 18 -168 43 -214
57 -83 25 -84 25 -62 42 34 26 150 83 185 92 17 4 75 7 128 8 75 1 112 -4 160
-20z m-1353 -83 c-2 -2 -60 -14 -129 -25 -440 -75 -822 -264 -1175 -580 -106
-95 -175 -147 -175 -131 0 16 191 204 275 271 243 195 575 351 897 423 120 27
320 54 307 42z m2738 -265 c15 -22 23 -49 23 -77 0 -41 -3 -46 -62 -94 -35
-28 -73 -53 -85 -56 -52 -13 -117 28 -111 69 2 13 26 37 63 62 42 29 67 55 85
88 30 57 53 59 87 8z m-262 -117 c21 -22 15 -58 -10 -62 -26 -4 -70 41 -62 62
8 21 51 20 72 0z m-140 -104 c0 -29 -4 -36 -23 -38 -29 -4 -52 14 -52 43 0 30
9 36 45 33 27 -3 30 -6 30 -38z m-97 8 c18 -18 14 -38 -7 -38 -20 0 -35 25
-25 41 7 12 18 11 32 -3z m-2932 -482 c12 -13 25 -44 28 -69 l7 -46 42 19 c55
25 98 25 131 -1 33 -26 34 -61 1 -114 -13 -22 -25 -43 -25 -46 0 -4 22 -9 48
-13 45 -6 90 -33 93 -56 1 -6 2 -16 3 -22 4 -27 -16 -66 -40 -77 -13 -6 -42
-14 -64 -17 l-38 -6 18 -37 c29 -58 31 -84 10 -119 -17 -28 -25 -32 -62 -32
-26 0 -57 8 -77 21 -18 11 -34 19 -36 17 -1 -2 -10 -23 -19 -48 -25 -64 -33
-70 -87 -70 -45 0 -51 3 -69 33 -11 17 -20 44 -20 60 0 32 -4 33 -37 7 -33
-26 -93 -26 -124 -1 l-23 19 -33 -102 c-17 -55 -41 -130 -52 -166 -19 -60 -20
-62 -15 -20 2 25 14 80 24 124 22 85 25 132 11 140 -5 3 -75 17 -156 30 -160
26 -185 24 -261 -19 -55 -32 -64 -49 -112 -195 -73 -226 -123 -454 -137 -633
-4 -48 -10 -86 -13 -83 -9 10 -1 179 13 276 50 338 140 668 232 855 52 107
149 253 180 273 18 11 12 -6 -32 -94 -67 -132 -77 -186 -44 -228 29 -37 109
-72 196 -87 115 -19 113 -18 113 -42 1 -20 2 -21 14 -4 7 9 21 17 30 17 9 0
20 -8 24 -17 5 -13 9 -4 13 27 3 25 9 57 13 71 7 25 5 27 -37 33 -52 8 -76 30
-83 78 -5 30 -2 38 26 61 17 15 49 30 71 33 21 4 39 9 39 13 0 3 -9 20 -20 36
-26 39 -26 96 -1 119 30 27 82 31 133 8 l46 -20 6 48 c12 91 97 128 152 66z
m-938 -412 c24 -7 29 -33 12 -64 -12 -22 -41 -17 -66 11 -16 18 -16 20 1 39
20 22 21 22 53 14z m1818 -59 c-4 -42 -3 -65 4 -65 15 0 12 -42 -4 -65 -7 -11
-16 -29 -19 -40 -3 -15 -5 -13 -6 8 -1 27 -2 28 -53 26 -32 -1 -72 -12 -101
-26 -38 -19 -61 -23 -109 -21 -52 3 -64 7 -81 29 -17 23 -18 31 -8 62 7 19 19
38 27 41 29 11 121 6 166 -10 27 -9 70 -14 104 -12 l59 3 9 68 c12 86 21 88
12 2z m1548 32 c66 -87 0 -171 -95 -122 -21 11 -34 13 -48 6 -24 -14 -84 -33
-203 -66 -75 -20 -101 -24 -117 -16 -15 8 -22 8 -28 -2 -4 -7 -20 -18 -35 -24
-26 -12 -27 -11 -47 43 -12 30 -21 59 -21 63 0 5 22 11 48 15 27 3 101 19 165
35 72 17 120 25 123 19 4 -6 10 -5 14 2 4 7 32 15 61 18 43 3 60 10 81 33 37
39 70 38 102 -4z m-1291 -57 c31 -16 67 -30 79 -30 32 0 157 -27 191 -41 22
-9 27 -18 27 -44 0 -18 -6 -37 -13 -43 -7 -6 -80 -13 -162 -15 -83 -3 -168 -8
-189 -12 -71 -13 -138 43 -140 116 -2 92 100 126 207 69z m-672 -57 c13 -13
-13 -68 -36 -77 -43 -16 -121 1 -131 29 -4 8 -3 27 0 41 7 26 8 27 82 22 41
-3 80 -10 85 -15z m1129 -11 c36 -36 49 -96 29 -131 -11 -20 -24 -27 -55 -29
-36 -3 -45 1 -74 34 -28 33 -32 42 -27 78 10 75 75 99 127 48z m-2799 -113
c-10 -41 -24 -137 -31 -214 -11 -122 -11 -154 4 -252 9 -61 23 -124 31 -139 8
-16 13 -30 11 -31 -2 -2 -23 -9 -47 -16 -36 -10 -48 -21 -69 -57 -24 -44 -26
-45 -78 -46 -40 -1 -60 -8 -87 -28 -33 -26 -35 -30 -35 -87 0 -32 -4 -59 -10
-59 -5 0 -8 6 -5 13 2 6 6 59 10 117 16 274 115 557 279 799 20 29 36 60 36
69 0 8 2 13 5 10 3 -2 -3 -38 -14 -79z m1344 -568 c15 -62 38 -140 51 -172 13
-32 24 -60 24 -62 0 -2 -49 9 -109 24 -59 15 -143 31 -185 35 -42 4 -76 10
-76 14 0 3 13 33 29 66 15 32 39 83 51 112 12 28 26 52 31 52 4 0 34 -7 66
-15 76 -20 83 -19 83 9 0 31 -22 53 -78 77 -24 11 -42 23 -40 29 2 5 28 83 58
172 l55 163 7 -196 c5 -162 11 -215 33 -308z m1722 272 l51 -103 -85 0 -86 0
7 38 c3 20 9 89 13 152 l7 115 20 -50 c12 -27 44 -96 73 -152z m-540 -205 c-3
-8 -6 -5 -6 6 -1 11 2 17 5 13 3 -3 4 -12 1 -19z m589 6 l59 -6 71 -117 70
-116 -166 3 c-91 2 -195 -1 -232 -6 -38 -5 -68 -6 -68 -3 0 4 13 41 29 83 16
42 33 93 37 114 3 22 9 42 11 47 5 9 108 9 189 1z m-615 -202 l-21 -147 -43
-34 c-23 -19 -72 -66 -109 -105 l-67 -70 -78 14 c-98 19 -281 17 -350 -2 -29
-8 -56 -12 -60 -9 -10 7 -53 67 -53 73 0 3 33 0 73 -5 95 -12 386 -1 460 17
37 8 70 24 89 42 39 38 120 206 150 312 13 45 24 78 26 72 2 -5 -6 -76 -17
-158z m-2441 -8 c6 -14 10 -59 10 -101 0 -69 -2 -78 -26 -100 -27 -25 -27 -25
-21 -131 6 -97 9 -109 31 -128 l25 -22 5 -298 c2 -165 8 -337 12 -384 4 -47 4
-82 0 -79 -21 19 -77 375 -121 764 -14 127 -32 276 -40 333 -20 140 -6 171 78
172 31 0 39 -4 47 -26z m4028 -6 c15 -15 15 -60 2 -158 -11 -79 -37 -333 -71
-685 -11 -115 -26 -259 -34 -320 l-13 -110 -1 195 c-1 107 -6 285 -11 395
l-10 199 26 27 c25 26 26 33 27 138 0 73 -4 119 -13 135 -9 18 -11 47 -5 110
l7 86 42 0 c23 0 47 -5 54 -12z m-3013 -68 c151 -13 286 -45 391 -91 52 -23
93 -44 90 -46 -2 -2 -21 4 -43 15 -51 26 -190 70 -288 90 -128 27 -491 23
-655 -6 -167 -30 -295 -58 -409 -88 -52 -13 -96 -22 -99 -19 -8 8 37 21 198
59 345 80 595 106 815 86z m2278 -5 c241 -28 575 -99 602 -127 7 -8 4 -9 -9
-4 -140 49 -496 113 -706 125 -300 18 -546 -15 -713 -95 -26 -12 -45 -18 -41
-13 7 12 75 43 154 68 57 19 167 41 265 54 77 10 333 6 448 -8z m-3456 -26
c12 -25 47 -280 73 -529 29 -288 86 -627 136 -819 14 -51 24 -107 22 -125 -6
-62 -97 -72 -140 -15 -26 34 -49 127 -108 434 -56 292 -66 358 -109 702 -38
295 -38 323 -8 350 29 27 45 32 87 30 27 -2 38 -8 47 -28z m4311 21 c13 0 34
-11 47 -25 38 -37 37 -64 -42 -705 -13 -113 -31 -259 -39 -325 -23 -194 -54
-398 -65 -432 -28 -88 -149 -80 -149 10 0 18 11 95 24 172 25 143 47 325 66
565 22 261 69 685 81 718 9 27 16 33 33 28 11 -3 31 -6 44 -6z m-3428 -98 c0
-9 -62 -48 -72 -44 -4 1 -17 -16 -28 -38 -20 -40 -33 -49 -45 -30 -11 17 -25
0 -25 -29 0 -57 -48 -63 -75 -10 -34 64 11 122 105 134 25 4 63 10 85 15 55
11 55 11 55 2z m2599 -16 c14 -6 34 -26 44 -44 16 -27 17 -35 6 -48 -11 -13
-18 -9 -58 30 -25 24 -62 54 -81 65 l-35 21 50 -6 c28 -4 61 -12 74 -18z
m-546 -17 c-29 -17 -66 -47 -83 -67 -29 -35 -33 -55 -8 -34 23 18 138 51 202
58 186 19 385 -92 465 -258 17 -37 37 -100 43 -141 l12 -75 43 107 c23 58 43
113 43 121 1 9 5 5 11 -8 24 -62 58 -455 45 -526 -9 -47 -131 -173 -202 -209
-114 -57 -285 -78 -462 -58 -187 22 -306 75 -407 182 -72 77 -93 113 -130 222
-49 147 -41 333 21 464 32 67 115 142 201 183 68 32 188 68 233 69 20 0 15 -5
-27 -30z m-1523 -6 c143 -47 265 -134 310 -222 59 -117 76 -296 40 -435 -74
-290 -298 -436 -670 -436 -150 0 -240 18 -335 64 -86 43 -134 82 -174 143 -31
46 -31 46 -31 188 0 141 15 370 28 434 l7 33 27 -58 c77 -169 88 -195 88 -208
0 -8 4 -17 9 -20 4 -3 11 25 13 63 8 103 63 214 144 290 77 73 147 107 246
123 65 10 90 9 164 -6 47 -9 100 -24 116 -32 28 -14 29 -14 20 3 -15 28 -54
61 -98 83 l-39 21 45 -7 c25 -3 65 -13 90 -21z m1134 -5 c-16 -12 -43 -33 -60
-47 -16 -14 -8 -5 19 22 26 26 53 47 59 47 6 0 -2 -10 -18 -22z m-2243 -48
c26 -15 24 -46 -6 -66 -31 -20 -55 -15 -66 14 -6 17 -4 27 11 42 23 23 33 24
61 10z m3687 -12 c30 -30 -5 -77 -47 -63 -54 17 -51 75 3 75 17 0 37 -5 44
-12z m-405 -53 c19 -40 20 -45 10 -45 -9 0 -43 57 -43 71 0 20 17 7 33 -26z
m-2937 -61 c-3 -8 -15 -14 -26 -14 -16 0 -20 6 -20 34 0 19 3 42 7 52 5 13 10
9 25 -21 11 -20 17 -43 14 -51z m1489 56 c4 -6 -13 -10 -43 -10 -28 0 -80 -9
-117 -21 -76 -23 -99 -20 -33 5 74 29 183 43 193 26z m111 -190 c65 -32 80
-62 87 -178 17 -258 122 -462 301 -584 170 -117 391 -162 672 -138 124 11 133
13 229 60 55 26 119 64 141 84 34 29 43 33 48 20 3 -9 6 -96 6 -195 0 -138 -3
-187 -15 -208 -7 -15 -48 -60 -89 -98 -109 -101 -249 -172 -476 -238 -199 -58
-476 -109 -700 -130 -142 -13 -163 -20 -118 -40 19 -8 25 -25 38 -100 8 -49
19 -96 23 -103 5 -7 32 -24 60 -38 83 -42 83 -42 35 -83 -23 -20 -72 -57 -108
-82 -72 -51 -160 -142 -160 -166 0 -8 -33 21 -74 64 -49 52 -112 104 -180 149
-58 38 -106 72 -106 76 0 4 31 23 69 42 64 33 69 38 80 80 6 25 11 55 11 68 0
42 21 98 35 98 8 0 15 4 15 9 0 5 -35 12 -77 16 -324 27 -515 55 -718 106
-298 75 -496 169 -620 295 -86 87 -87 93 -93 291 l-5 173 84 -50 c155 -94 315
-122 566 -101 146 12 206 25 306 67 255 107 407 357 407 672 0 108 30 154 117
178 64 18 152 11 209 -16z m-979 -806 c-3 -3 -12 -4 -19 -1 -8 3 -5 6 6 6 11
1 17 -2 13 -5z m1791 -1 c-10 -2 -26 -2 -35 0 -10 3 -2 5 17 5 19 0 27 -2 18
-5z m-1900 -10 c-38 -2 -98 -2 -135 0 -38 2 -7 3 67 3 74 0 105 -1 68 -3z
m2075 0 c-29 -2 -77 -2 -105 0 -29 2 -6 3 52 3 58 0 81 -1 53 -3z m-3490 -723
c18 -32 59 -76 112 -121 71 -60 87 -79 105 -125 11 -30 20 -60 21 -67 0 -7 45
-50 100 -97 55 -47 107 -91 115 -98 41 -38 -8 -191 -87 -272 -28 -27 -55 -50
-62 -49 -7 0 -41 36 -77 79 -36 43 -76 83 -90 89 -14 6 -68 10 -120 8 -170 -4
-243 17 -293 84 -32 44 -24 95 39 235 4 8 -26 13 -99 16 -106 3 -141 15 -131
43 10 25 86 44 194 49 106 4 204 21 228 39 15 11 16 41 1 32 -6 -4 -9 -1 -7 6
1 8 -8 31 -21 52 -18 30 -22 47 -18 78 11 83 50 91 90 19z m5037 31 c23 -44 7
-126 -33 -169 -26 -28 -14 -56 24 -58 13 -1 53 -9 89 -18 36 -8 100 -16 143
-16 96 0 166 -26 167 -62 0 -15 -69 -28 -146 -28 -46 0 -84 -1 -84 -3 0 -1 14
-38 30 -80 36 -93 37 -130 8 -173 -38 -56 -75 -67 -238 -71 -80 -2 -155 -6
-167 -9 -12 -2 -54 -42 -94 -89 -40 -47 -77 -85 -83 -85 -17 0 -115 110 -138
153 -11 22 -22 66 -25 96 l-5 56 43 34 c166 131 197 162 209 209 17 68 43 105
115 162 40 32 78 74 100 111 38 62 66 75 85 40z m-2800 -178 c0 -16 -3 -51 -6
-79 -6 -49 -8 -52 -58 -77 -28 -14 -63 -34 -77 -43 -26 -17 -27 -17 -78 26
-39 33 -54 41 -63 32 -6 -6 -10 -13 -7 -15 2 -2 41 -33 86 -70 45 -36 123 -94
175 -127 51 -34 110 -78 131 -98 46 -44 101 -128 93 -141 -3 -5 -21 -12 -40
-15 -19 -4 -36 -12 -39 -19 -2 -7 -10 21 -17 62 -13 80 -34 111 -75 111 -30 0
-52 -31 -61 -87 l-6 -42 -69 25 c-38 14 -117 45 -177 70 -156 67 -275 104
-338 107 l-55 2 5 30 c15 71 101 138 168 131 l38 -4 -20 25 c-57 72 4 129 193
182 86 25 169 38 245 40 50 1 52 0 52 -26z m610 16 c146 -23 331 -95 346 -134
3 -7 1 -29 -4 -49 l-10 -35 52 -15 c71 -21 126 -82 126 -139 0 -23 -4 -25 -64
-29 -45 -4 -103 -21 -202 -61 -76 -31 -187 -73 -246 -95 l-108 -40 0 38 c0 41
-28 84 -60 93 -31 8 -56 -21 -80 -95 -20 -62 -23 -67 -53 -70 l-32 -4 35 -16
35 -16 -43 -1 -44 -1 6 40 c3 22 13 54 22 72 24 47 128 146 211 201 88 60 201
154 222 186 13 20 2 16 -53 -22 l-69 -46 -31 23 c-17 13 -50 33 -73 45 -44 22
-56 45 -69 134 l-6 47 63 0 c35 0 93 -5 129 -11z m-3130 -223 c0 -2 -11 -29
-25 -60 l-25 -57 -82 3 c-67 2 -83 6 -86 19 -5 29 123 97 186 98 17 1 32 -1
32 -3z m5645 -20 c56 -27 95 -60 95 -81 0 -12 -16 -15 -80 -15 l-80 0 -25 50
c-14 27 -25 54 -25 60 0 18 64 10 115 -14z m-4754 -112 c25 -11 52 -33 70 -57
25 -35 29 -49 29 -107 0 -168 -104 -338 -255 -417 -68 -36 -166 -38 -213 -4
-43 30 -62 70 -62 128 0 47 25 114 45 120 6 2 18 -11 27 -27 22 -38 44 -38 96
0 87 63 162 200 170 311 4 64 6 69 28 69 13 0 42 -7 65 -16z m3840 -64 c7 -88
30 -146 88 -223 38 -50 107 -107 130 -107 5 0 23 16 40 35 l31 35 26 -52 c21
-42 25 -61 21 -100 -8 -65 -20 -84 -70 -109 -96 -49 -211 -16 -315 92 -125
129 -181 300 -133 404 28 62 92 107 146 102 30 -2 30 -2 36 -77z m-2716 -46
c11 -4 94 -38 184 -77 90 -38 189 -77 221 -86 32 -9 60 -20 62 -26 2 -7 -149
-11 -435 -13 l-438 -2 11 21 c19 35 126 136 175 164 26 16 61 31 78 34 32 7
104 -1 142 -15z m1682 -22 c56 -34 122 -90 182 -156 l24 -26 -441 0 c-362 0
-442 2 -442 13 0 8 26 21 63 31 34 9 145 50 247 91 229 90 206 83 260 84 35 0
59 -8 107 -37z m-1133 -28 c23 -22 23 -152 0 -161 -26 -10 -38 14 -42 82 -6
91 7 115 42 79z m410 -6 c10 -37 7 -146 -4 -153 -6 -3 -19 -3 -30 0 -17 6 -20
15 -20 75 0 38 3 75 6 84 9 24 41 19 48 -6z m-1904 -65 c85 -58 147 -127 132
-146 -32 -39 -32 -86 3 -421 19 -182 35 -336 35 -343 0 -20 -34 -16 -118 13
-247 85 -439 231 -531 404 -17 32 -31 61 -31 64 0 3 25 6 55 6 86 0 153 31
238 110 82 77 133 161 163 268 9 34 20 62 23 62 4 0 18 -8 31 -17z m3434 -26
c14 -89 102 -236 185 -308 59 -51 137 -85 214 -94 31 -4 57 -8 57 -10 0 -2
-14 -30 -30 -62 -64 -124 -201 -245 -377 -332 -95 -47 -223 -91 -266 -91 -23
0 -24 -20 24 393 32 287 33 299 17 344 l-17 46 32 40 c34 43 125 117 143 117
7 0 15 -19 18 -43z m-264 -102 c20 -12 43 -38 54 -60 l19 -39 -57 -460 c-31
-254 -70 -571 -86 -706 -31 -254 -48 -335 -83 -384 -42 -60 26 -57 -1334 -57
l-1245 0 -45 22 c-78 38 -96 104 -138 494 -30 272 -87 777 -111 968 -17 141
-14 165 32 208 13 12 41 25 61 29 21 4 682 7 1468 6 1417 -1 1430 -1 1465 -21z
m1585 -245 c-110 -3 -201 -7 -202 -8 -2 -1 -4 -35 -5 -74 l-2 -73 -3 73 -4 72
-29 0 -30 0 0 -75 c0 -68 -2 -75 -20 -75 -18 0 -20 7 -20 73 0 43 5 78 12 85
9 9 77 11 258 10 l245 -2 -200 -6z m-5529 -232 c-3 -18 -10 -100 -16 -183 -6
-82 -13 -157 -16 -165 -3 -13 -106 -15 -861 -13 -472 1 -886 2 -919 2 l-62 1
-12 98 c-6 53 -15 141 -18 195 l-7 97 958 0 958 0 -5 -32z m-496 -412 c14 -2
-294 -4 -683 -5 -390 0 -706 3 -703 7 4 7 1328 5 1386 -2z m283 -3 c-45 -2
-122 -2 -170 0 -48 1 -11 3 82 3 94 0 133 -2 88 -3z m7063 -157 c7 -28 -4 -52
-41 -86 l-27 -25 -20 25 c-11 14 -28 35 -39 48 -10 12 -19 26 -19 30 0 11 65
29 107 31 27 1 34 -3 39 -23z m-7846 -66 l0 -60 30 0 c17 0 30 -4 30 -10 0 -5
-22 -10 -50 -10 l-50 0 0 70 c0 63 2 70 20 70 18 0 20 -7 20 -60z m-485 -17
l4 -63 -49 0 c-61 0 -75 20 -65 87 l6 44 50 -3 50 -3 4 -62z m8105 52 c-14
-17 -101 -67 -107 -61 -2 2 -5 16 -6 32 -2 24 3 29 28 35 17 4 45 7 64 8 28 1
32 -1 21 -14z m72 -12 c28 -33 28 -40 -1 -40 -16 0 -37 -8 -48 -18 -10 -10
-38 -31 -63 -47 -25 -16 -46 -33 -46 -38 -1 -6 -2 -15 -3 -21 0 -5 -6 -7 -12
-3 -9 5 -10 -1 -5 -20 l7 -28 -33 31 c-18 17 -37 31 -42 31 -5 0 15 17 45 38
30 21 82 60 115 85 32 26 62 47 65 47 3 0 13 -8 21 -17z m-7286 -20 l26 -17
-23 -10 c-24 -9 -24 -10 -3 -13 12 -2 24 -13 27 -24 4 -16 0 -19 -28 -19 -30
0 -33 3 -39 41 -6 37 -2 59 10 59 3 0 16 -8 30 -17z m7074 -6 c0 -27 -31 -45
-88 -51 -20 -2 -28 -1 -17 1 11 3 25 9 30 15 7 7 4 8 -10 5 -11 -4 -33 -9 -48
-13 -22 -5 -25 -9 -15 -16 9 -6 1 -8 -22 -6 -19 1 -48 1 -65 0 -23 -2 -27 -4
-15 -12 10 -6 3 -8 -22 -3 -21 3 -38 1 -38 -4 0 -5 -8 -9 -17 -9 -44 -2 -200
-37 -220 -50 -26 -16 -38 -4 -20 21 9 12 70 30 198 60 101 24 218 52 259 63
101 27 110 27 110 -1z m-7750 -22 c0 -23 16 -18 28 10 14 29 32 33 32 6 0 -26
-38 -71 -60 -71 -11 0 -22 12 -29 31 -17 49 -15 62 9 49 11 -6 20 -17 20 -25z
m174 29 c11 -4 16 -19 16 -45 l0 -39 -44 0 c-50 0 -71 18 -62 54 7 28 54 44
90 30z m-254 -24 c0 -16 -7 -20 -32 -22 l-33 -1 33 -4 c20 -3 32 -10 32 -19 0
-12 -11 -14 -47 -12 -48 3 -48 3 -51 41 l-3 37 50 0 c44 0 51 -3 51 -20z m548
-17 c-3 -38 -3 -38 -50 -41 l-48 -3 0 40 0 41 51 0 50 0 -3 -37z m130 0 c3
-29 0 -32 -32 -39 -29 -5 -36 -11 -36 -30 0 -15 -6 -24 -15 -24 -12 0 -15 14
-15 66 l0 65 48 -3 c45 -3 47 -4 50 -35z m240 -6 l3 -38 -48 3 c-42 3 -48 6
-51 26 -6 43 4 53 50 50 42 -3 43 -4 46 -41z m132 28 c0 -10 -10 -15 -30 -15
-25 0 -30 -4 -30 -25 0 -16 -6 -25 -15 -25 -11 0 -15 11 -15 40 l0 40 45 0
c33 0 45 -4 45 -15z m6760 -150 c11 -10 20 -28 20 -41 0 -28 -46 -66 -74 -62
-18 3 -21 10 -21 60 0 57 0 57 -20 39 -30 -27 -40 -31 -102 -42 -83 -14 -416
-50 -420 -45 -10 9 68 28 237 56 102 17 210 37 240 44 70 17 114 15 140 -9z
m-7962 -57 c-3 -7 -15 -15 -29 -16 -40 -6 -44 -20 -7 -27 19 -4 35 -12 35 -18
0 -7 3 -22 7 -34 7 -22 5 -23 -48 -23 -31 0 -56 5 -56 10 0 6 11 10 24 10 14
0 28 5 31 10 3 6 -5 10 -18 10 -35 0 -51 52 -25 78 16 16 91 16 86 0z m482
-23 c0 -33 1 -34 25 -25 25 10 26 9 19 -25 -4 -24 -2 -35 5 -35 7 0 10 -4 7
-8 -3 -5 -24 -7 -48 -6 l-43 2 -3 66 c-3 61 -1 66 18 66 16 0 20 -6 20 -35z
m-370 1 c0 -8 10 -16 22 -18 29 -4 34 -26 7 -30 -29 -4 -35 -24 -9 -31 33 -9
24 -29 -12 -25 -30 3 -33 6 -36 40 -3 31 -7 37 -30 40 -24 4 -25 5 -7 12 11 4
27 11 35 16 22 13 30 12 30 -4z m185 -34 c-3 -7 -5 -27 -5 -43 0 -29 -1 -30
-42 -27 -42 3 -43 4 -46 43 l-3 40 51 1 c40 0 50 -3 45 -14z m113 -21 c0 -37
-3 -40 -34 -46 -46 -8 -54 -1 -54 46 l0 39 44 0 45 0 -1 -39z m8030 -16 c-11
-11 -626 -20 -1360 -20 -673 0 -858 3 -858 12 0 10 238 12 1111 12 610 -1
1109 -3 1107 -4z m-5911 -107 c6 -37 7 -72 2 -86 -22 -57 2 -106 64 -136 19
-8 104 -25 188 -36 180 -24 369 -56 454 -76 120 -29 471 -143 521 -168 l26
-14 -53 -28 c-38 -19 -78 -29 -134 -35 -54 -5 -110 -19 -172 -43 -108 -42
-153 -45 -361 -21 -96 12 -166 27 -255 56 -160 52 -236 63 -374 55 -175 -10
-225 8 -278 99 -63 107 -29 251 86 367 51 51 105 82 189 109 85 28 86 27 97
-43z m2928 47 c61 -10 174 -74 229 -130 54 -54 90 -122 106 -201 9 -44 8 -59
-10 -106 -11 -30 -35 -72 -53 -93 l-33 -38 -190 -2 c-183 -2 -193 -3 -329 -40
-77 -20 -174 -43 -215 -50 -300 -55 -736 -168 -1039 -270 -107 -36 -200 -65
-205 -65 -38 2 -100 116 -112 208 -11 82 -4 87 291 212 94 39 184 78 201 85
65 30 234 98 329 134 98 37 103 38 245 40 215 2 558 20 615 33 28 6 65 21 83
35 37 28 42 61 17 121 -21 49 -11 145 14 138 9 -2 34 -7 56 -11z m-5467 -101
c34 -10 26 -24 -14 -24 -21 0 -33 -4 -29 -10 3 -5 17 -10 31 -10 21 0 24 -4
24 -40 l0 -40 -50 0 c-38 0 -50 4 -50 15 0 11 11 15 38 16 l37 1 -35 12 c-27
10 -36 19 -38 41 -5 40 26 55 86 39z m742 -24 c0 -29 13 -40 25 -20 3 6 10 10
16 10 5 0 4 -9 -3 -20 -10 -16 -10 -24 0 -41 15 -24 8 -39 -10 -21 -17 17 -28
15 -28 -4 0 -9 -7 -14 -17 -12 -32 6 -30 138 2 138 10 0 15 -10 15 -30z m-243
0 c3 -11 14 -20 24 -20 10 0 21 -4 24 -10 4 -6 -5 -10 -19 -10 -35 0 -34 -27
2 -42 l27 -12 -28 -4 c-49 -6 -57 2 -57 63 0 55 16 76 27 35z m-384 -6 c-5
-14 -1 -15 25 -9 25 5 32 3 32 -9 0 -10 -9 -16 -25 -16 -23 0 -24 -2 -15 -20
6 -11 17 -20 25 -20 8 0 15 -4 15 -10 0 -11 -39 -13 -64 -4 -9 3 -16 17 -16
30 0 15 -6 24 -15 24 -18 0 -18 5 -5 31 13 24 52 27 43 3z m171 -36 c9 -12 16
-32 16 -43 0 -18 -5 -20 -50 -17 -27 2 -50 6 -50 8 0 3 7 20 14 39 18 41 47
46 70 13z m171 12 c4 -6 -10 -10 -35 -10 -34 0 -41 -3 -38 -17 2 -10 13 -19
26 -21 33 -5 26 -19 -12 -24 -49 -6 -56 -1 -56 43 l0 39 54 0 c30 0 58 -4 61
-10z m220 0 c4 -6 -7 -10 -24 -10 -24 0 -31 -4 -31 -20 0 -16 7 -20 37 -20 25
0 34 -3 27 -10 -16 -16 -84 -15 -95 1 -10 17 -12 53 -2 62 10 11 81 8 88 -3z
m3834 -114 c-2 -2 -33 -15 -69 -30 l-65 -25 -415 -2 -415 -1 -69 26 c-39 15
-72 29 -75 31 -2 3 247 5 554 5 307 0 556 -2 554 -4z m-3999 -156 l0 -60 30 0
c17 0 30 -5 30 -11 0 -6 -19 -9 -47 -7 l-47 3 0 67 c-1 58 1 68 17 68 14 0 17
-10 17 -60z m-492 41 c9 -5 12 -25 10 -62 l-3 -54 -52 -3 -53 -3 0 50 c0 27
-3 56 -6 65 -5 13 2 16 42 16 27 0 55 -4 62 -9z m129 -39 c6 -4 13 -23 15 -42
3 -34 2 -35 -35 -38 -46 -4 -67 11 -67 49 0 24 4 28 33 32 17 2 34 4 37 5 3 1
10 -2 17 -6z m96 -23 c7 -27 24 -24 31 6 6 25 20 33 30 16 8 -12 -36 -75 -55
-79 -14 -3 -62 71 -53 81 11 10 42 -6 47 -24z m442 -14 c0 -40 0 -40 -41 -43
-36 -3 -42 0 -48 20 -3 13 -6 29 -6 36 0 16 37 32 70 29 22 -2 25 -7 25 -42z
m109 39 c10 -4 16 -18 16 -40 0 -29 -4 -34 -32 -42 -23 -6 -34 -15 -36 -30 -6
-37 -22 -24 -23 18 -3 87 -3 88 19 93 27 7 39 7 56 1z m275 -3 c21 -13 3 -32
-25 -25 -22 6 -24 3 -24 -25 0 -21 -5 -31 -15 -31 -11 0 -15 12 -15 45 0 44 1
45 33 45 17 0 38 -4 46 -9z m-644 -41 c0 -32 -3 -35 -33 -38 -39 -4 -62 12
-62 43 0 31 9 36 55 33 39 -3 40 -4 40 -38z m523 18 c3 -14 -4 -18 -35 -20
l-38 -1 38 -4 c53 -6 42 -28 -14 -28 -44 0 -44 0 -47 38 l-3 38 48 -3 c36 -2
49 -7 51 -20z m2620 -259 c-19 -55 -5 -157 33 -234 39 -81 169 -219 234 -249
22 -11 48 -23 57 -27 10 -5 27 -9 38 -9 35 0 22 -27 -24 -49 -143 -67 -261
-48 -359 58 -55 60 -123 163 -148 228 -28 72 -32 197 -6 236 16 25 124 76 164
77 20 0 21 -2 11 -31z m-865 -49 c-77 -38 -118 -84 -139 -157 -33 -113 -1
-225 87 -308 54 -50 102 -76 184 -101 53 -15 88 -16 285 -10 124 3 272 12 330
19 98 12 158 12 145 -1 -5 -6 -221 -33 -465 -58 -211 -21 -404 -15 -483 15
-71 28 -153 105 -186 176 -48 102 -36 246 30 341 52 76 124 113 219 113 l55 0
-62 -29z m2636 -1 c111 -56 156 -147 149 -303 -4 -73 -9 -101 -31 -142 -34
-67 -117 -140 -182 -160 -69 -22 -267 -29 -427 -15 -210 19 -522 61 -532 71
-14 14 37 12 179 -5 66 -8 208 -18 315 -21 180 -6 201 -5 273 15 99 27 147 52
203 103 74 68 105 193 75 305 -16 60 -90 137 -154 162 l-52 20 61 0 c49 1 73
-5 123 -30z m-2500 -15 c17 -14 45 -54 62 -90 27 -55 32 -74 32 -141 0 -101
-28 -177 -83 -227 -23 -20 -51 -36 -64 -36 -43 0 -146 79 -179 137 -79 143
-22 319 120 366 66 22 77 21 112 -9z m2396 -8 c21 -11 54 -40 71 -63 93 -121
49 -314 -88 -393 -72 -41 -93 -39 -144 15 -46 47 -84 144 -84 211 0 92 44 202
98 245 31 24 85 19 147 -15z m-2280 4 c100 -19 109 -21 150 -32 22 -6 43 -11
48 -10 4 1 7 -1 7 -5 0 -8 34 -11 118 -13 23 0 42 -5 42 -10 0 -6 -9 -10 -20
-10 -11 0 -23 -6 -26 -14 -5 -12 -12 -11 -39 6 -39 22 -52 18 -70 -24 l-12
-31 -23 41 c-13 22 -31 43 -42 45 -23 6 -78 -23 -78 -40 0 -22 4 -28 16 -25
16 3 24 -31 24 -103 0 -58 -11 -85 -34 -85 -6 0 -4 4 4 10 27 17 0 24 -29 7
l-28 -16 -6 105 c-3 58 -10 111 -16 117 -6 6 -11 19 -11 30 0 10 -4 15 -10 12
-5 -3 -10 -2 -10 3 0 5 -12 22 -27 37 -24 23 -25 27 -8 22 11 -3 47 -11 80
-17z m2029 -122 c-8 -29 -14 -88 -15 -131 -1 -62 -5 -83 -19 -97 -10 -10 -16
-21 -13 -24 9 -8 -18 -37 -31 -34 -6 2 -12 -1 -13 -6 -1 -5 -9 -14 -19 -19
-25 -14 -64 33 -64 76 l1 32 14 -26 c20 -36 42 -42 65 -19 22 22 26 55 9 65
-17 11 0 152 23 192 11 18 24 33 28 33 12 0 20 -29 10 -35 -6 -4 -10 -1 -10 6
0 7 -2 10 -5 8 -2 -3 -2 -15 2 -27 5 -23 6 -22 19 4 8 14 14 33 14 40 0 8 4
14 9 14 5 0 3 -24 -5 -52z m-1888 21 c17 -19 19 -38 20 -157 0 -132 0 -137
-24 -159 -27 -25 -61 -30 -66 -10 -2 6 -8 27 -14 44 -12 37 0 52 20 25 20 -28
36 -34 58 -22 26 14 26 28 -1 32 -21 3 -22 8 -23 136 -1 72 2 132 5 132 3 0
14 -9 25 -21z m1773 -101 c1 -51 3 -104 4 -118 3 -40 -24 -30 -40 15 -11 29
-13 62 -8 119 6 88 11 102 29 87 8 -7 14 -44 15 -103z m-4210 93 l703 -1 -7
-72 c-9 -87 -25 -132 -55 -148 -13 -7 -73 -12 -152 -12 l-129 -1 -25 36 c-56
83 -184 69 -203 -23 l-7 -35 -464 0 c-449 0 -466 1 -500 20 -46 27 -67 73 -75
168 l-7 78 108 -5 c60 -3 426 -5 813 -5z m2571 -12 c18 -33 34 -218 21 -246
-15 -32 -29 -29 -35 10 -13 90 -25 240 -20 248 9 15 23 10 34 -12z m1508 -118
c-3 -92 -8 -125 -22 -146 -29 -43 -41 -19 -28 57 6 35 14 92 18 128 7 71 10
80 26 80 7 0 9 -39 6 -119z m-1384 6 c17 -56 25 -98 21 -114 -8 -33 -18 -21
-39 45 -22 71 -35 142 -29 159 8 22 16 6 47 -90z m1325 -60 c-6 -32 -15 -59
-18 -62 -8 -5 4 141 15 186 9 34 9 33 12 -16 2 -27 -2 -76 -9 -108z m-53 61
c-4 -40 -16 -91 -28 -117 l-22 -46 -4 37 c-7 73 29 197 57 198 2 0 1 -32 -3
-72z m-1447 3 c13 -40 14 -61 3 -61 -13 0 -42 68 -42 97 0 24 2 25 14 13 7 -8
18 -30 25 -49z m116 -37 c3 -25 4 -48 2 -51 -10 -9 -25 32 -32 82 -5 45 -5 48
8 32 8 -10 18 -38 22 -63z m1495 72 c0 -3 -4 -16 -10 -31 -7 -17 -7 -24 0 -20
16 10 12 -39 -5 -61 -13 -17 -14 -15 -15 33 0 55 7 83 21 83 5 0 9 -2 9 -4z
m-2400 -65 c0 -11 3 -26 6 -35 5 -14 -8 -16 -107 -16 -116 0 -175 -9 -354 -55
-55 -14 -161 -33 -235 -41 -178 -20 -514 -35 -616 -28 l-80 6 4 29 c4 25 9 29
36 29 184 1 473 14 561 26 61 8 198 33 305 54 107 21 206 41 220 43 14 2 78 5
143 6 109 1 117 0 117 -18z m2005 -43 c-16 -95 -69 -184 -127 -214 -50 -26
-125 -21 -193 12 -32 16 -61 36 -63 44 -3 10 1 8 10 -4 22 -28 50 -14 42 20
-7 25 -5 27 22 20 19 -4 24 -3 15 3 -11 7 -9 12 10 22 13 7 27 12 32 11 4 -1
6 1 5 6 -7 19 43 52 107 72 39 12 86 28 105 36 19 7 37 13 38 13 2 1 1 -18 -3
-41z m407 0 c-8 -8 -9 -4 -5 13 4 13 8 18 11 10 2 -7 -1 -18 -6 -23z m-3853
-9 c16 -15 20 -24 12 -32 -6 -6 -12 -9 -13 -6 -2 2 -14 16 -27 32 -30 33 -7
38 28 6z m2261 -93 c0 -3 -9 3 -20 14 -11 11 -20 25 -20 31 0 7 9 0 20 -14 11
-14 20 -28 20 -31z m-797 12 c6 -39 0 -47 -44 -58 -19 -4 -90 -25 -159 -46
-124 -37 -127 -38 -300 -38 l-175 -1 -3 48 -3 47 178 1 c176 0 180 1 313 39
174 49 186 50 193 8z m540 2 c-3 -11 -7 -20 -9 -20 -2 0 -4 9 -4 20 0 11 4 20
9 20 5 0 7 -9 4 -20z m-1306 -66 c-3 -3 -12 -4 -19 -1 -8 3 -5 6 6 6 11 1 17
-2 13 -5z m2413 -4 c0 -5 -4 -10 -10 -10 -5 0 -10 5 -10 10 0 6 5 10 10 10 6
0 10 -4 10 -10z m-2462 -7 c-10 -2 -28 -2 -40 0 -13 2 -5 4 17 4 22 1 32 -1
23 -4z"/>
<path d="M4140 8089 c30 -5 66 -18 80 -28 37 -27 70 -90 70 -136 0 -44 -35
-106 -71 -126 -11 -6 -18 -13 -16 -16 9 -8 62 37 81 69 11 18 18 48 18 74 -2
100 -85 177 -187 173 -19 -1 -9 -5 25 -10z"/>
<path d="M3980 8018 c-40 -67 -38 -137 6 -195 30 -39 65 -59 119 -68 37 -5 36
-5 -13 13 -119 43 -160 133 -108 235 27 54 25 62 -4 15z"/>
<path d="M5875 6581 c-258 -45 -373 -421 -193 -626 109 -124 258 -155 404 -85
153 74 231 247 190 423 -19 82 -36 116 -83 168 -87 97 -203 140 -318 120z
m-10 -154 c17 -14 28 -36 32 -63 5 -36 1 -46 -25 -75 -25 -28 -37 -34 -72 -34
-35 0 -47 6 -71 33 -38 42 -39 89 -3 131 22 26 33 31 69 31 31 0 52 -7 70 -23z"/>
<path d="M4035 6581 c-100 -16 -202 -101 -253 -209 -24 -50 -27 -69 -27 -162
0 -94 3 -111 28 -165 34 -73 95 -138 162 -173 40 -21 68 -27 143 -30 88 -4 96
-3 157 27 71 35 124 90 157 161 29 62 37 225 14 303 -49 169 -212 275 -381
248z m-36 -157 c57 -48 34 -143 -40 -165 -35 -11 -45 -10 -74 5 -62 33 -74
108 -26 157 39 39 96 40 140 3z"/>
<path d="M5028 5803 c7 -3 16 -2 19 1 4 3 -2 6 -13 5 -11 0 -14 -3 -6 -6z"/>
<path d="M4786 5521 c-21 -23 -20 -30 2 -25 11 3 25 -7 41 -30 35 -53 127 -96
206 -96 94 0 158 25 215 83 27 27 53 46 59 43 17 -11 13 10 -5 28 -8 9 -17 16
-20 16 -2 0 -21 -18 -41 -41 -57 -63 -104 -83 -198 -83 -92 -1 -143 20 -190
76 -38 45 -50 50 -69 29z"/>
<path d="M2605 4460 c16 -16 31 -28 33 -25 3 3 13 -1 22 -7 9 -7 -2 4 -24 24
-49 45 -72 51 -31 8z"/>
<path d="M7586 4467 c-16 -13 -25 -26 -20 -29 5 -3 23 7 39 23 36 35 22 39
-19 6z"/>
<path d="M5040 3420 c-70 -13 -97 -26 -149 -75 -69 -65 -96 -129 -95 -230 0
-63 5 -90 24 -130 67 -137 220 -206 358 -161 68 23 144 92 179 164 23 47 28
70 28 132 0 62 -5 85 -28 132 -61 125 -187 192 -317 168z m120 -82 c0 -24 -46
-78 -67 -78 -22 0 -15 49 12 75 30 31 55 32 55 3z m69 -104 c58 -48 66 -165
17 -248 -33 -57 -65 -73 -118 -59 -26 7 -50 8 -65 2 -62 -23 -94 -2 -137 91
-42 90 -30 191 26 221 13 7 44 9 82 5 34 -3 75 -2 91 3 50 15 72 12 104 -15z"/>
<path d="M1085 2882 c-3 -3 -5 -20 -5 -39 0 -26 4 -33 19 -33 28 0 36 19 15
35 -18 13 -18 14 5 23 l25 9 -27 5 c-14 3 -29 3 -32 0z"/>
<path d="M1498 2813 c6 -2 18 -2 25 0 6 3 1 5 -13 5 -14 0 -19 -2 -12 -5z"/>
<path d="M1770 2820 c0 -23 25 -27 33 -6 7 16 -1 26 -20 26 -7 0 -13 -9 -13
-20z"/>
<path d="M1904 2825 c-4 -9 -4 -18 -1 -21 10 -10 48 7 44 19 -6 19 -36 20 -43
2z"/>
<path d="M2140 2810 c0 -5 11 -10 25 -10 14 0 25 5 25 10 0 6 -11 10 -25 10
-14 0 -25 -4 -25 -10z"/>
<path d="M1367 2574 c-16 -16 -6 -34 19 -34 19 0 25 5 22 17 -3 19 -29 29 -41
17z"/>
<path d="M1510 2571 c13 -9 13 -11 -2 -11 -10 0 -18 -5 -18 -11 0 -6 8 -9 18
-7 21 4 23 30 2 35 -13 4 -13 3 0 -6z"/>
<path d="M1375 2290 c-3 -5 -1 -10 4 -10 6 0 11 5 11 10 0 6 -2 10 -4 10 -3 0
-8 -4 -11 -10z"/>
<path d="M1080 2039 c0 -36 2 -40 23 -37 18 2 23 10 25 41 3 34 1 37 -22 37
-24 0 -26 -4 -26 -41z"/>
<path d="M1230 2015 c0 -17 2 -18 24 -9 23 9 20 24 -4 24 -11 0 -20 -7 -20
-15z"/>
<path d="M1750 2020 c0 -18 3 -19 20 -10 11 6 20 15 20 20 0 6 -9 10 -20 10
-13 0 -20 -7 -20 -20z"/>
<path d="M1880 2034 c-9 -10 -10 -18 -2 -26 12 -12 32 -2 32 17 0 21 -16 26
-30 9z"/>
<path d="M1490 2020 c0 -5 12 -10 28 -10 21 0 24 2 12 10 -20 13 -40 13 -40 0z"/>
<path d="M4091 1594 c0 -11 3 -14 6 -6 3 7 2 16 -1 19 -3 4 -6 -2 -5 -13z"/>
<path d="M4135 1560 c3 -5 8 -10 11 -10 2 0 4 5 4 10 0 6 -5 10 -11 10 -5 0
-7 -4 -4 -10z"/>
<path d="M2536 7208 c-26 -116 -46 -268 -44 -328 1 -52 2 -52 5 -10 5 69 33
257 50 333 8 38 13 71 10 74 -3 2 -12 -28 -21 -69z"/>
<path d="M7739 3423 c-13 -15 -12 -15 9 -4 23 12 28 21 13 21 -5 0 -15 -7 -22
-17z"/>
<path d="M7681 3138 c0 -50 3 -67 9 -53 12 28 12 113 0 120 -6 4 -10 -21 -9
-67z"/>
<path d="M7888 3039 c-23 -13 -24 -67 -2 -76 37 -14 70 41 44 73 -14 16 -19
17 -42 3z m40 -37 c3 -19 0 -23 -19 -20 -14 2 -23 11 -26 26 -2 19 1 23 19 20
15 -2 24 -11 26 -26z"/>
<path d="M7956 3031 c-3 -5 -3 -23 0 -40 11 -54 64 -31 64 28 0 17 -6 21 -29
21 -17 0 -32 -4 -35 -9z m41 -9 c16 -10 5 -52 -12 -46 -16 7 -27 32 -19 45 6
11 15 11 31 1z"/>
<path d="M8035 3020 c-8 -26 11 -60 35 -60 28 0 34 18 8 22 -31 4 -39 48 -9
48 12 0 21 -5 21 -11 0 -5 5 -7 10 -4 17 11 0 25 -30 25 -20 0 -31 -6 -35 -20z"/>
<path d="M8126 3024 c-8 -21 22 -64 45 -64 10 0 25 10 34 23 15 20 17 21 26 5
5 -10 21 -18 34 -18 22 0 25 5 25 35 0 32 -2 35 -30 35 -20 0 -30 -5 -30 -15
0 -8 -4 -15 -9 -15 -5 0 -11 7 -15 15 -8 21 -72 20 -80 -1z m70 -21 c3 -18 -1
-23 -20 -23 -23 0 -42 31 -28 45 14 13 45 -1 48 -22z m82 -1 c2 -14 -2 -22
-11 -22 -17 0 -30 27 -21 41 9 16 29 4 32 -19z"/>
<path d="M8307 3026 c-7 -18 20 -56 39 -56 20 0 18 9 -8 32 l-23 19 28 -4 c18
-3 27 0 27 9 0 19 -56 18 -63 0z"/>
</g>
</svg>
